<?xml version="1.0" encoding="UTF-8"?>
<svg version="1.1" xmlns="http://www.w3.org/2000/svg" width="450" height="237">
  <path
    d="M0 0 C148.5 0 297 0 450 0 C450 78.21 450 156.42 450 237 C301.5 237 153 237 0 237 C0 158.79 0 80.58 0 0 Z "
    fill="none" transform="translate(0,0)" />
  <path
    d="M0 0 C5.8107817 -0.63575865 11.49709361 -1.16282629 17.31567383 -1.4831543 C19.2693989 -1.61637368 21.22057621 -1.79874536 23.16430664 -2.03686523 C32.78018749 -3.18238543 41.27674328 -2.4406467 49.21650815 3.48065794 C52.30843222 5.98082222 55.20206502 8.64526175 58.04223633 11.42651367 C58.64502796 12.01550729 59.2478196 12.6045009 59.86887765 13.21134281 C71.90824838 25.3485665 74.65893285 36.42346036 74.7515564 53.15112305 C74.72503904 55.55107983 74.6793193 57.94990094 74.62678862 60.34942245 C74.55686916 64.56514666 74.62224072 68.77954923 74.66421509 72.99536133 C74.71291604 80.06789592 74.64980759 87.13274423 74.52001953 94.20410156 C74.3730543 102.30321741 74.42068903 110.38398706 74.56933248 118.48265934 C74.69315878 125.51952297 74.70855771 132.55096408 74.63848841 139.58856869 C74.59705453 143.75541854 74.58876546 147.91373791 74.6799736 152.07998657 C75.00332802 169.16764464 73.80394987 182.07265111 61.6891346 194.95360565 C60.48290827 196.16963588 59.2673145 197.37645044 58.04223633 198.57348633 C57.16165043 199.43580447 57.16165043 199.43580447 56.26327491 200.31554317 C48.00864423 208.16752862 40.50668786 212.84969707 28.68788624 212.56262684 C25.87934963 212.36553973 23.10673384 212.02981218 20.3125 211.6875 C18.3166021 211.55140497 16.31977341 211.42832738 14.32226562 211.31835938 C9.50494122 211.04929078 4.82194506 210.52756986 0 210 C0 197.46 0 184.92 0 172 C13.75 171.75 13.75 171.75 18.06933594 171.70214844 C19.19629883 171.6715332 20.32326172 171.64091797 21.484375 171.609375 C22.63647461 171.58842773 23.78857422 171.56748047 24.97558594 171.54589844 C28.67936925 170.87737571 29.66636798 169.89814857 32 167 C32.59590341 164.54625729 32.59590341 164.54625729 32.50793457 161.83837891 C32.51921387 160.79530579 32.53049316 159.75223267 32.54211426 158.67755127 C32.53401733 157.53872498 32.52592041 156.39989868 32.51757812 155.2265625 C32.5245874 154.02296082 32.53159668 152.81935913 32.53881836 151.57928467 C32.55340691 148.28148408 32.54998877 144.98468738 32.53730202 141.68694305 C32.52716963 138.23480385 32.53656834 134.78270731 32.54284668 131.33056641 C32.55012244 125.53345036 32.54053745 119.73653821 32.52148438 113.93945312 C32.49971552 107.23871586 32.50676696 100.53846542 32.52879 93.83773994 C32.54694623 88.08303729 32.54950131 82.32848113 32.53903532 76.57375908 C32.53280151 73.13740942 32.53196135 69.70128854 32.54518127 66.26495361 C32.55888914 62.43425597 32.53988633 58.60410294 32.51757812 54.7734375 C32.52567505 53.63461121 32.53377197 52.49578491 32.54211426 51.32244873 C32.53083496 50.27937561 32.51955566 49.23630249 32.50793457 48.16162109 C32.50567242 46.8033168 32.50567242 46.8033168 32.50336456 45.41757202 C31.83598873 42.21228254 30.53394026 41.01034763 28 39 C24.9150054 38.36004039 24.9150054 38.36004039 21.484375 38.390625 C19.79393066 38.34470215 19.79393066 38.34470215 18.06933594 38.29785156 C15.93126465 38.27416504 15.93126465 38.27416504 13.75 38.25 C9.2125 38.1675 4.675 38.085 0 38 C0 25.46 0 12.92 0 0 Z "
    fill="#fff" transform="translate(223,14)" />
  <path
    d="M0 0 C1.65 0 3.3 0 5 0 C5 2.31 5 4.62 5 7 C6.32 7 7.64 7 9 7 C9 4.69 9 2.38 9 0 C10.32 0 11.64 0 13 0 C13 2.31 13 4.62 13 7 C14.65 7 16.3 7 18 7 C18 4.69 18 2.38 18 0 C19.32 0 20.64 0 22 0 C22 2.31 22 4.62 22 7 C23.32 7 24.64 7 26 7 C26 4.69 26 2.38 26 0 C27.65 0 29.3 0 31 0 C31 2.31 31 4.62 31 7 C32.32 7 33.64 7 35 7 C35 4.69 35 2.38 35 0 C36.65 0 38.3 0 40 0 C40 2.31 40 4.62 40 7 C41.32 7 42.64 7 44 7 C44 4.69 44 2.38 44 0 C45.32 0 46.64 0 48 0 C48 2.31 48 4.62 48 7 C49.65 7 51.3 7 53 7 C53 4.69 53 2.38 53 0 C54.32 0 55.64 0 57 0 C57 2.31 57 4.62 57 7 C58.32 7 59.64 7 61 7 C61 4.69 61 2.38 61 0 C62.65 0 64.3 0 66 0 C66 2.31 66 4.62 66 7 C67.32 7 68.64 7 70 7 C70 4.69 70 2.38 70 0 C71.32 0 72.64 0 74 0 C74 2.31 74 4.62 74 7 C75.65 7 77.3 7 79 7 C79 4.69 79 2.38 79 0 C80.32 0 81.64 0 83 0 C83 2.31 83 4.62 83 7 C84.32 7 85.64 7 87 7 C87 8.32 87 9.64 87 11 C89.31 11 91.62 11 94 11 C94 12.32 94 13.64 94 15 C91.69 15 89.38 15 87 15 C87 16.65 87 18.3 87 20 C89.31 20 91.62 20 94 20 C94 21.32 94 22.64 94 24 C91.69 24 89.38 24 87 24 C87 25.32 87 26.64 87 28 C89.64 28 92.28 28 95 28 C95 29.65 95 31.3 95 33 C92.36 33 89.72 33 87 33 C87 34.32 87 35.64 87 37 C89.31 37 91.62 37 94 37 C94 38.32 94 39.64 94 41 C91.69 41 89.38 41 87 41 C87 42.65 87 44.3 87 46 C89.31 46 91.62 46 94 46 C94 47.32 94 48.64 94 50 C91.69 50 89.38 50 87 50 C87 51.65 87 53.3 87 55 C89.31 55 91.62 55 94 55 C94 56.32 94 57.64 94 59 C91.69 59 89.38 59 87 59 C87 60.32 87 61.64 87 63 C89.64 63 92.28 63 95 63 C95 64.65 95 66.3 95 68 C92.36 68 89.72 68 87 68 C87 69.32 87 70.64 87 72 C89.31 72 91.62 72 94 72 C94 73.32 94 74.64 94 76 C91.69 76 89.38 76 87 76 C87 77.65 87 79.3 87 81 C89.31 81 91.62 81 94 81 C94 82.32 94 83.64 94 85 C91.69 85 89.38 85 87 85 C87 86.32 87 87.64 87 89 C89.64 89 92.28 89 95 89 C95 90.65 95 92.3 95 94 C92.36 94 89.72 94 87 94 C87 95.32 87 96.64 87 98 C85.68 98 84.36 98 83 98 C83 100.31 83 102.62 83 105 C81.68 105 80.36 105 79 105 C79 102.69 79 100.38 79 98 C77.35 98 75.7 98 74 98 C74 100.31 74 102.62 74 105 C72.68 105 71.36 105 70 105 C70 102.69 70 100.38 70 98 C68.68 98 67.36 98 66 98 C66 100.31 66 102.62 66 105 C64.35 105 62.7 105 61 105 C61 102.69 61 100.38 61 98 C59.68 98 58.36 98 57 98 C57 100.31 57 102.62 57 105 C55.68 105 54.36 105 53 105 C53 102.69 53 100.38 53 98 C51.35 98 49.7 98 48 98 C48 100.31 48 102.62 48 105 C46.68 105 45.36 105 44 105 C44 102.69 44 100.38 44 98 C42.68 98 41.36 98 40 98 C40 100.31 40 102.62 40 105 C38.35 105 36.7 105 35 105 C35 102.69 35 100.38 35 98 C33.68 98 32.36 98 31 98 C31 100.31 31 102.62 31 105 C29.35 105 27.7 105 26 105 C26 102.69 26 100.38 26 98 C24.68 98 23.36 98 22 98 C22 100.31 22 102.62 22 105 C20.68 105 19.36 105 18 105 C18 102.69 18 100.38 18 98 C16.35 98 14.7 98 13 98 C13 100.31 13 102.62 13 105 C11.68 105 10.36 105 9 105 C9 102.69 9 100.38 9 98 C7.68 98 6.36 98 5 98 C5 100.31 5 102.62 5 105 C3.35 105 1.7 105 0 105 C0 102.69 0 100.38 0 98 C-1.32 98 -2.64 98 -4 98 C-4 96.68 -4 95.36 -4 94 C-6.31 94 -8.62 94 -11 94 C-11 92.35 -11 90.7 -11 89 C-8.69 89 -6.38 89 -4 89 C-4 87.68 -4 86.36 -4 85 C-6.31 85 -8.62 85 -11 85 C-11 83.35 -11 81.7 -11 80 C-8.69 80 -6.38 80 -4 80 C-4 78.68 -4 77.36 -4 76 C-6.31 76 -8.62 76 -11 76 C-11 74.68 -11 73.36 -11 72 C-8.69 72 -6.38 72 -4 72 C-4 70.68 -4 69.36 -4 68 C-6.31 68 -8.62 68 -11 68 C-11 66.35 -11 64.7 -11 63 C-8.69 63 -6.38 63 -4 63 C-4 61.68 -4 60.36 -4 59 C-6.31 59 -8.62 59 -11 59 C-11 57.35 -11 55.7 -11 54 C-8.69 54 -6.38 54 -4 54 C-4 52.68 -4 51.36 -4 50 C-6.31 50 -8.62 50 -11 50 C-11 48.68 -11 47.36 -11 46 C-8.69 46 -6.38 46 -4 46 C-4 44.68 -4 43.36 -4 42 C-6.31 42 -8.62 42 -11 42 C-11 40.35 -11 38.7 -11 37 C-8.69 37 -6.38 37 -4 37 C-4 35.68 -4 34.36 -4 33 C-6.31 33 -8.62 33 -11 33 C-11 31.35 -11 29.7 -11 28 C-8.69 28 -6.38 28 -4 28 C-4 26.68 -4 25.36 -4 24 C-6.31 24 -8.62 24 -11 24 C-11 22.35 -11 20.7 -11 19 C-8.69 19 -6.38 19 -4 19 C-4 17.68 -4 16.36 -4 15 C-6.31 15 -8.62 15 -11 15 C-11 13.68 -11 12.36 -11 11 C-8.69 11 -6.38 11 -4 11 C-4 9.68 -4 8.36 -4 7 C-2.68 7 -1.36 7 0 7 C0 4.69 0 2.38 0 0 Z "
    fill="#fff" transform="translate(25,67)" />
  <path
    d="M0 0 C12.54 0 25.08 0 38 0 C38 69.3 38 138.6 38 210 C25.46 210 12.92 210 0 210 C0 140.7 0 71.4 0 0 Z "
    fill="#fff" transform="translate(172,14)" />
  <path
    d="M0 0 C5.878125 -0.556875 11.75625 -1.11375 17.8125 -1.6875 C19.60276611 -1.93330811 21.39303223 -2.17911621 23.23754883 -2.43237305 C34.06722934 -3.29866433 41.85657697 0.93040843 49.94361877 7.66838074 C61.71590611 18.10384578 68.17983021 28.38075008 69.44450569 44.22327614 C69.78306164 50.49610134 69.73328126 56.73902889 69.52001953 63.01513672 C69.36572105 67.59745475 69.45725065 72.13762959 69.61290836 76.71850109 C70.11276587 94.05737017 69.15795473 109.01157172 57.17198181 122.40507507 C49.07757625 130.80382419 39.99219827 138.95733744 27.83203125 139.63671875 C24.38809167 139.60671596 21.26823333 139.161981 17.8125 138.6875 C11.934375 138.130625 6.05625 137.57375 0 137 C0 124.46 0 111.92 0 99 C7.92 99 15.84 99 24 99 C24.66 97.68 25.32 96.36 26 95 C26.99 94.01 26.99 94.01 28 93 C28.31963717 90.80617532 28.31963717 90.80617532 28.29052734 88.24658203 C28.30328705 87.25860626 28.31604675 86.27063049 28.32919312 85.25271606 C28.33141876 84.18189789 28.33364441 83.11107971 28.3359375 82.0078125 C28.3425943 80.91032684 28.3492511 79.81284119 28.35610962 78.68209839 C28.36624948 76.35693034 28.37092623 74.03173311 28.37060547 71.70654297 C28.37497384 68.14632196 28.41126775 64.58734484 28.44921875 61.02734375 C28.4550875 58.77083758 28.4590565 56.51432551 28.4609375 54.2578125 C28.47530853 53.19104279 28.48967957 52.12427307 28.50448608 51.025177 C28.53645937 45.38059115 28.53645937 45.38059115 26.32373047 40.33447266 C23.4923183 38.7084484 21.61935591 38.4599863 18.359375 38.390625 C16.91256348 38.34470215 16.91256348 38.34470215 15.43652344 38.29785156 C13.61169434 38.27416504 13.61169434 38.27416504 11.75 38.25 C7.8725 38.1675 3.995 38.085 0 38 C0 25.46 0 12.92 0 0 Z "
    fill="#fff" transform="translate(369,14)" />
  <path
    d="M0 0 C12.54 0 25.08 0 38 0 C38 45.21 38 90.42 38 137 C25.46 137 12.92 137 0 137 C0 91.79 0 46.58 0 0 Z "
    fill="#fff" transform="translate(318,14)" />
  <path
    d="M0 0 C12.54 0 25.08 0 38 0 C38 20.13 38 40.26 38 61 C25.46 61 12.92 61 0 61 C0 40.87 0 20.74 0 0 Z "
    fill="#fff" transform="translate(318,163)" />
  <path
    d="M0 0 C1.65 0 3.3 0 5 0 C5 2.31 5 4.62 5 7 C6.32 7 7.64 7 9 7 C9 4.69 9 2.38 9 0 C10.32 0 11.64 0 13 0 C13 2.31 13 4.62 13 7 C14.65 7 16.3 7 18 7 C18 4.69 18 2.38 18 0 C19.32 0 20.64 0 22 0 C22 2.31 22 4.62 22 7 C23.32 7 24.64 7 26 7 C26 4.69 26 2.38 26 0 C27.65 0 29.3 0 31 0 C31 2.31 31 4.62 31 7 C32.32 7 33.64 7 35 7 C35 4.69 35 2.38 35 0 C36.65 0 38.3 0 40 0 C40 2.31 40 4.62 40 7 C41.32 7 42.64 7 44 7 C44 4.69 44 2.38 44 0 C45.32 0 46.64 0 48 0 C48 2.31 48 4.62 48 7 C49.65 7 51.3 7 53 7 C53 4.69 53 2.38 53 0 C54.32 0 55.64 0 57 0 C57 2.31 57 4.62 57 7 C58.32 7 59.64 7 61 7 C61 4.69 61 2.38 61 0 C62.65 0 64.3 0 66 0 C66 2.31 66 4.62 66 7 C67.32 7 68.64 7 70 7 C70 4.69 70 2.38 70 0 C71.32 0 72.64 0 74 0 C74 2.31 74 4.62 74 7 C75.65 7 77.3 7 79 7 C79 4.69 79 2.38 79 0 C80.32 0 81.64 0 83 0 C83 2.31 83 4.62 83 7 C84.32 7 85.64 7 87 7 C87 8.32 87 9.64 87 11 C89.31 11 91.62 11 94 11 C94 12.32 94 13.64 94 15 C91.69 15 89.38 15 87 15 C87 16.65 87 18.3 87 20 C89.31 20 91.62 20 94 20 C94 21.32 94 22.64 94 24 C91.69 24 89.38 24 87 24 C87 25.32 87 26.64 87 28 C89.64 28 92.28 28 95 28 C95 29.65 95 31.3 95 33 C92.36 33 89.72 33 87 33 C87 34.32 87 35.64 87 37 C89.31 37 91.62 37 94 37 C94 38.32 94 39.64 94 41 C91.69 41 89.38 41 87 41 C87 42.65 87 44.3 87 46 C89.31 46 91.62 46 94 46 C94 47.32 94 48.64 94 50 C91.69 50 89.38 50 87 50 C87 51.65 87 53.3 87 55 C89.31 55 91.62 55 94 55 C94 56.32 94 57.64 94 59 C91.69 59 89.38 59 87 59 C87 60.32 87 61.64 87 63 C89.64 63 92.28 63 95 63 C95 64.65 95 66.3 95 68 C92.36 68 89.72 68 87 68 C87 69.32 87 70.64 87 72 C89.31 72 91.62 72 94 72 C94 73.32 94 74.64 94 76 C91.69 76 89.38 76 87 76 C87 77.65 87 79.3 87 81 C89.31 81 91.62 81 94 81 C94 82.32 94 83.64 94 85 C91.69 85 89.38 85 87 85 C87 86.32 87 87.64 87 89 C89.64 89 92.28 89 95 89 C95 90.65 95 92.3 95 94 C92.36 94 89.72 94 87 94 C87 95.32 87 96.64 87 98 C85.68 98 84.36 98 83 98 C83 100.31 83 102.62 83 105 C81.68 105 80.36 105 79 105 C79 102.69 79 100.38 79 98 C77.35 98 75.7 98 74 98 C74 100.31 74 102.62 74 105 C72.68 105 71.36 105 70 105 C70 102.69 70 100.38 70 98 C68.68 98 67.36 98 66 98 C66 100.31 66 102.62 66 105 C64.35 105 62.7 105 61 105 C61 102.69 61 100.38 61 98 C59.68 98 58.36 98 57 98 C57 100.31 57 102.62 57 105 C55.68 105 54.36 105 53 105 C53 102.69 53 100.38 53 98 C51.35 98 49.7 98 48 98 C48 100.31 48 102.62 48 105 C46.68 105 45.36 105 44 105 C44 102.69 44 100.38 44 98 C42.68 98 41.36 98 40 98 C40 100.31 40 102.62 40 105 C38.35 105 36.7 105 35 105 C35 102.69 35 100.38 35 98 C33.68 98 32.36 98 31 98 C31 100.31 31 102.62 31 105 C29.35 105 27.7 105 26 105 C26 102.69 26 100.38 26 98 C24.68 98 23.36 98 22 98 C22 100.31 22 102.62 22 105 C20.68 105 19.36 105 18 105 C18 102.69 18 100.38 18 98 C16.35 98 14.7 98 13 98 C13 100.31 13 102.62 13 105 C11.68 105 10.36 105 9 105 C9 102.69 9 100.38 9 98 C7.68 98 6.36 98 5 98 C5 100.31 5 102.62 5 105 C3.35 105 1.7 105 0 105 C0 102.69 0 100.38 0 98 C-1.32 98 -2.64 98 -4 98 C-4 96.68 -4 95.36 -4 94 C-6.31 94 -8.62 94 -11 94 C-11 92.35 -11 90.7 -11 89 C-8.69 89 -6.38 89 -4 89 C-4 87.68 -4 86.36 -4 85 C-6.31 85 -8.62 85 -11 85 C-11 83.35 -11 81.7 -11 80 C-8.69 80 -6.38 80 -4 80 C-4 78.68 -4 77.36 -4 76 C-6.31 76 -8.62 76 -11 76 C-11 74.68 -11 73.36 -11 72 C-8.69 72 -6.38 72 -4 72 C-4 70.68 -4 69.36 -4 68 C-6.31 68 -8.62 68 -11 68 C-11 66.35 -11 64.7 -11 63 C-8.69 63 -6.38 63 -4 63 C-4 61.68 -4 60.36 -4 59 C-6.31 59 -8.62 59 -11 59 C-11 57.35 -11 55.7 -11 54 C-8.69 54 -6.38 54 -4 54 C-4 52.68 -4 51.36 -4 50 C-6.31 50 -8.62 50 -11 50 C-11 48.68 -11 47.36 -11 46 C-8.69 46 -6.38 46 -4 46 C-4 44.68 -4 43.36 -4 42 C-6.31 42 -8.62 42 -11 42 C-11 40.35 -11 38.7 -11 37 C-8.69 37 -6.38 37 -4 37 C-4 35.68 -4 34.36 -4 33 C-6.31 33 -8.62 33 -11 33 C-11 31.35 -11 29.7 -11 28 C-8.69 28 -6.38 28 -4 28 C-4 26.68 -4 25.36 -4 24 C-6.31 24 -8.62 24 -11 24 C-11 22.35 -11 20.7 -11 19 C-8.69 19 -6.38 19 -4 19 C-4 17.68 -4 16.36 -4 15 C-6.31 15 -8.62 15 -11 15 C-11 13.68 -11 12.36 -11 11 C-8.69 11 -6.38 11 -4 11 C-4 9.68 -4 8.36 -4 7 C-2.68 7 -1.36 7 0 7 C0 4.69 0 2.38 0 0 Z M-3 8 C-3 37.37 -3 66.74 -3 97 C26.37 97 55.74 97 86 97 C86 67.63 86 38.26 86 8 C56.63 8 27.26 8 -3 8 Z "
    fill="#667DC5" transform="translate(25,67)" />
  <path
    d="M0 0 C29.37 0 58.74 0 89 0 C89 29.37 89 58.74 89 89 C59.63 89 30.26 89 0 89 C0 59.63 0 30.26 0 0 Z M5.0766449 5.0823822 C3.40408363 8.06138973 3.61010731 10.67386161 3.59594727 14.07006836 C3.58908401 14.78584549 3.58222076 15.50162262 3.57514954 16.23908997 C3.55684176 18.60620945 3.56072458 20.97266863 3.56640625 23.33984375 C3.56184616 24.98507402 3.5565411 26.63030238 3.55052185 28.27552795 C3.54158283 31.72469823 3.54402255 35.17363707 3.55395508 38.62280273 C3.56544282 43.0427383 3.5452409 47.46187473 3.51603794 51.88170528 C3.49768984 55.27980117 3.49796563 58.6777051 3.50367546 62.07583809 C3.50382886 63.70532922 3.49776881 65.3348332 3.48538399 66.96427727 C3.47050215 69.24353996 3.48112855 71.52132074 3.49829102 73.80053711 C3.49845718 75.0972081 3.49862335 76.39387909 3.49879456 77.72984314 C3.74239986 81.06351543 3.74239986 81.06351543 5.84806824 83.42158508 C8.77416112 85.56783746 10.6941315 85.45860129 14.296875 85.390625 C15.50214844 85.37773437 16.70742188 85.36484375 17.94921875 85.3515625 C19.20347656 85.31804687 20.45773438 85.28453125 21.75 85.25 C23.01972656 85.23195313 24.28945313 85.21390625 25.59765625 85.1953125 C28.73253077 85.14817153 31.8658856 85.08237664 35 85 C35 84.34 35 83.68 35 83 C41.27 83 47.54 83 54 83 C54 83.66 54 84.32 54 85 C57.93260944 85.07421454 61.86494722 85.12863136 65.7980957 85.16479492 C67.79327701 85.18728333 69.78826213 85.22540198 71.78320312 85.26367188 C73.03681641 85.27333984 74.29042969 85.28300781 75.58203125 85.29296875 C76.73936768 85.3086792 77.8967041 85.32438965 79.08911133 85.34057617 C81.91676101 85.22712562 81.91676101 85.22712562 83.65766907 83.92732239 C85.72214114 80.96314779 85.381697 78.40056801 85.38818359 74.82226562 C85.39344055 74.09512863 85.39869751 73.36799164 85.40411377 72.61882019 C85.41732141 70.21441184 85.40857339 67.81066513 85.3984375 65.40625 C85.40045803 63.73620476 85.40336928 62.06616038 85.40713501 60.39611816 C85.41155938 56.89566652 85.40512378 53.39544449 85.39111328 49.89501953 C85.37402119 45.40559869 85.38386179 40.91671586 85.40183067 36.42731476 C85.41266553 32.97865741 85.40922357 29.53012785 85.4014473 26.08146667 C85.39944446 24.42604 85.40190751 22.77060177 85.40888596 21.1151886 C85.41649572 18.80239074 85.40490388 16.49046704 85.38818359 14.17773438 C85.38460342 12.20274963 85.38460342 12.20274963 85.38095093 10.18786621 C85.21748357 7.10224213 85.21748357 7.10224213 83.92434692 5.07565308 C80.91279927 3.39228691 78.25039296 3.61803077 74.82226562 3.61181641 C74.09512863 3.60655945 73.36799164 3.60130249 72.61882019 3.59588623 C70.21441184 3.58267859 67.81066513 3.59142661 65.40625 3.6015625 C63.73620476 3.59954197 62.06616038 3.59663072 60.39611816 3.59286499 C56.89566652 3.58844062 53.39544449 3.59487622 49.89501953 3.60888672 C45.40559869 3.62597881 40.91671586 3.61613821 36.42731476 3.59816933 C32.97865741 3.58733447 29.53012785 3.59077643 26.08146667 3.5985527 C24.42604 3.60055554 22.77060177 3.59809249 21.1151886 3.59111404 C18.80239074 3.58350428 16.49046704 3.59509612 14.17773438 3.61181641 C12.86107788 3.61420319 11.54442139 3.61658997 10.18786621 3.61904907 C7.10108651 3.78122 7.10108651 3.78122 5.0766449 5.0823822 Z "
    fill="#FEFEFE" transform="translate(22,75)" />
  <path
    d="M0 0 C0.72407043 -0.00861557 1.44814087 -0.01723114 2.19415283 -0.02610779 C4.58365806 -0.04877931 6.9719915 -0.04202709 9.36157227 -0.03295898 C11.02539926 -0.0381944 12.68922327 -0.04447058 14.3530426 -0.05174255 C17.83918224 -0.06214913 21.32491377 -0.05758233 24.81103516 -0.04296875 C29.27473841 -0.02578737 33.73715366 -0.04926566 38.20071316 -0.08445835 C41.63662722 -0.10643909 45.07223346 -0.10498922 48.50819588 -0.09669304 C50.15360997 -0.09587374 51.79904671 -0.10273313 53.44439507 -0.11746407 C55.7475846 -0.13492229 58.04846509 -0.12036064 60.3515625 -0.09765625 C62.3153611 -0.09621361 62.3153611 -0.09621361 64.3188324 -0.09474182 C68.7144959 0.7122697 70.16265737 1.90753432 72.74047852 5.53344727 C73.3686676 8.95509338 73.3686676 8.95509338 73.37158203 12.92236328 C73.37873734 13.64818604 73.38589264 14.37400879 73.39326477 15.12182617 C73.41011638 17.51098372 73.39077455 19.89825547 73.36938477 22.28735352 C73.37021371 23.95214493 73.37267407 25.61693626 73.37669373 27.28172302 C73.37954915 30.76619175 73.36487458 34.25001676 73.33740234 37.734375 C73.30329284 42.19915633 73.30934863 46.66278887 73.32806492 51.12762547 C73.33863563 54.56350776 73.32969703 57.99912294 73.3146801 61.43498039 C73.30950009 63.08119857 73.30997791 64.72744466 73.31622505 66.37365913 C73.32167945 68.67435797 73.30129911 70.97341419 73.27392578 73.27392578 C73.2677272 74.58232925 73.26152863 75.89073273 73.25514221 77.23878479 C72.74047852 80.53344727 72.74047852 80.53344727 70.90763855 82.95878601 C67.81946245 85.20265872 65.57209359 84.9882204 61.78735352 84.92407227 C61.12713196 84.91841248 60.4669104 84.91275269 59.78668213 84.90692139 C57.68719589 84.88460957 55.58944482 84.83443041 53.49047852 84.78344727 C52.06341991 84.76337521 50.63633443 84.74512566 49.20922852 84.72875977 C45.71908559 84.68476419 42.22995153 84.61577603 38.74047852 84.53344727 C38.74047852 83.87344727 38.74047852 83.21344727 38.74047852 82.53344727 C33.46047852 82.53344727 28.18047852 82.53344727 22.74047852 82.53344727 C22.74047852 83.19344727 22.74047852 83.85344727 22.74047852 84.53344727 C18.54132544 84.63251984 14.342796 84.70500899 10.14282227 84.75317383 C8.7149673 84.77325709 7.28719427 84.80052979 5.85961914 84.83520508 C3.80407484 84.88387395 1.74961996 84.90644694 -0.30639648 84.92407227 C-1.54228516 84.94501953 -2.77817383 84.9659668 -4.05151367 84.98754883 C-7.99198006 84.42976591 -8.88797684 83.68204753 -11.25952148 80.53344727 C-11.65460271 77.93603271 -11.80754937 75.76107904 -11.77709961 73.16625977 C-11.78410889 72.43082947 -11.79111816 71.69539917 -11.79833984 70.93768311 C-11.8159203 68.51088509 -11.80429788 66.08525677 -11.79077148 63.65844727 C-11.79346641 61.96980567 -11.79734883 60.28116558 -11.80236816 58.5925293 C-11.80826324 55.05510673 -11.79970022 51.51808843 -11.78100586 47.98071289 C-11.75821597 43.44755881 -11.77133904 38.91535199 -11.79529572 34.38223267 C-11.80975362 30.8957608 -11.80514781 27.40951332 -11.79478455 23.92303467 C-11.79211722 22.2516875 -11.79538725 20.58031992 -11.80470276 18.90899658 C-11.81486868 16.57232752 -11.79936897 14.23718982 -11.77709961 11.90063477 C-11.78519653 11.21064392 -11.79329346 10.52065308 -11.80163574 9.80975342 C-11.74623654 6.6703005 -11.40469682 4.75665135 -9.68089294 2.1063385 C-6.34508469 -0.06055892 -3.96691992 0.01879333 0 0 Z M-9.18287659 3.61582947 C-10.85543785 6.59483699 -10.64941417 9.20730888 -10.66357422 12.60351562 C-10.67043747 13.31929276 -10.67730072 14.03506989 -10.68437195 14.77253723 C-10.70267972 17.13965671 -10.69879691 19.50611589 -10.69311523 21.87329102 C-10.69767533 23.51852128 -10.70298038 25.16374964 -10.70899963 26.80897522 C-10.71793865 30.2581455 -10.71549893 33.70708434 -10.70556641 37.15625 C-10.69407866 41.57618557 -10.71428059 45.99532199 -10.74348354 50.41515255 C-10.76183164 53.81324844 -10.76155586 57.21115236 -10.75584602 60.60928535 C-10.75569262 62.23877648 -10.76175267 63.86828047 -10.7741375 65.49772453 C-10.78901934 67.77698723 -10.77839293 70.05476801 -10.76123047 72.33398438 C-10.7610643 73.63065536 -10.76089813 74.92732635 -10.76072693 76.26329041 C-10.51712162 79.5969627 -10.51712162 79.5969627 -8.41145325 81.95503235 C-5.48536036 84.10128472 -3.56538998 83.99204856 0.03735352 83.92407227 C1.24262695 83.91118164 2.44790039 83.89829102 3.68969727 83.88500977 C4.94395508 83.85149414 6.19821289 83.81797852 7.49047852 83.78344727 C8.76020508 83.76540039 10.02993164 83.74735352 11.33813477 83.72875977 C14.47300929 83.6816188 17.60636412 83.61582391 20.74047852 83.53344727 C20.74047852 82.87344727 20.74047852 82.21344727 20.74047852 81.53344727 C27.01047852 81.53344727 33.28047852 81.53344727 39.74047852 81.53344727 C39.74047852 82.19344727 39.74047852 82.85344727 39.74047852 83.53344727 C43.67308796 83.60766181 47.60542574 83.66207863 51.53857422 83.69824219 C53.53375552 83.7207306 55.52874064 83.75884924 57.52368164 83.79711914 C58.77729492 83.80678711 60.0309082 83.81645508 61.32250977 83.82641602 C62.47984619 83.84212646 63.63718262 83.85783691 64.82958984 83.87402344 C67.65723953 83.76057288 67.65723953 83.76057288 69.39814758 82.46076965 C71.46261966 79.49659505 71.12217551 76.93401527 71.12866211 73.35571289 C71.13391907 72.6285759 71.13917603 71.9014389 71.14459229 71.15226746 C71.15779993 68.7478591 71.14905191 66.34411239 71.13891602 63.93969727 C71.14093654 62.26965203 71.1438478 60.59960765 71.14761353 58.92956543 C71.1520379 55.42911379 71.14560229 51.92889176 71.1315918 48.4284668 C71.11449971 43.93904595 71.1243403 39.45016312 71.14230919 34.96076202 C71.15314405 31.51210468 71.14970209 28.06357511 71.14192581 24.61491394 C71.13992297 22.95948727 71.14238602 21.30404904 71.14936447 19.64863586 C71.15697423 17.33583801 71.1453824 15.0239143 71.12866211 12.71118164 C71.12508194 10.7361969 71.12508194 10.7361969 71.12142944 8.72131348 C70.95796209 5.6356894 70.95796209 5.6356894 69.66482544 3.60910034 C66.65327778 1.92573418 63.99087148 2.15147804 60.56274414 2.14526367 C59.83560715 2.14000671 59.10847015 2.13474976 58.35929871 2.1293335 C55.95489035 2.11612585 53.55114364 2.12487388 51.14672852 2.13500977 C49.47668328 2.13298924 47.8066389 2.13007798 46.13659668 2.12631226 C42.63614504 2.12188788 39.13592301 2.12832349 35.63549805 2.14233398 C31.1460772 2.15942608 26.65719437 2.14958548 22.16779327 2.13161659 C18.71913593 2.12078173 15.27060636 2.12422369 11.82194519 2.13199997 C10.16651852 2.13400281 8.51108029 2.13153976 6.85566711 2.12456131 C4.54286926 2.11695155 2.23094555 2.12854339 -0.08178711 2.14526367 C-1.3984436 2.14765045 -2.7151001 2.15003723 -4.07165527 2.15249634 C-7.15843498 2.31466726 -7.15843498 2.31466726 -9.18287659 3.61582947 Z "
    fill="#8396D0" transform="translate(36.259521484375,76.466552734375)" />
  <path
    d="M0 0 C1.32 0.33 2.64 0.66 4 1 C4 1.66 4 2.32 4 3 C3.01 3 2.02 3 1 3 C1.32440567 3.50961777 1.64881134 4.01923553 1.98304749 4.54429626 C3.3633211 7.87733593 3.25951148 10.68506303 3.27124023 14.29125977 C3.27646698 15.01854279 3.28169373 15.74582581 3.28707886 16.49514771 C3.29730139 18.0703828 3.30309622 19.6456515 3.30496025 21.22091866 C3.30862579 23.71318961 3.32535558 26.20506334 3.34571838 28.69725037 C3.4011248 35.781409 3.43186568 42.86562513 3.45629883 49.94995117 C3.47215409 54.28593522 3.5023467 58.62163489 3.54106331 62.95747185 C3.55272661 64.61007614 3.55864377 66.26273122 3.55874443 67.91537666 C3.55893603 70.22326593 3.57716623 72.53036755 3.59936523 74.83813477 C3.60443588 76.15177505 3.60950653 77.46541534 3.61473083 78.81886292 C3.74171173 81.9489531 3.74171173 81.9489531 5.33737183 83.92059326 C8.00413875 85.65190411 10.49636038 85.44315197 13.63671875 85.51171875 C14.93544922 85.54716797 16.23417969 85.58261719 17.57226562 85.61914062 C18.94400517 85.6422405 20.3157501 85.6650229 21.6875 85.6875 C23.07099607 85.72067542 24.45446129 85.75516531 25.83789062 85.79101562 C29.22517883 85.87363241 32.61220357 85.94274058 36 86 C36 86.33 36 86.66 36 87 C53.49 87.33 70.98 87.66 89 88 C89 88.33 89 88.66 89 89 C59.63 89 30.26 89 0 89 C0 59.63 0 30.26 0 0 Z "
    fill="#D6DCEF" transform="translate(22,75)" />
  <path
    d="M0 0 C0.66 0.33 1.32 0.66 2 1 C1.67902344 1.52078125 1.35804687 2.0415625 1.02734375 2.578125 C-1.35583509 8.19626523 -1.11106474 15.80072877 0.875 21.51953125 C4.52160118 27.79312473 10.18843628 31.72947876 17 34 C23.6127744 34.6126276 29.7543372 34.27115011 36 32 C32.15304865 36.61634162 28.18739315 37.67734977 22.453125 38.2578125 C14.7364643 38.58478965 7.81102781 37.38052282 1.890625 32.12890625 C-3.86306649 25.84026411 -5.49685649 20.57889374 -5.40234375 12.09375 C-4.78653786 7.35862125 -2.7242555 3.85287564 0 0 Z "
    fill="#5771C0" transform="translate(53,107)" />
  <path
    d="M0 0 C4.83842068 3.15549175 9.38347662 7.31825511 11 13 C11.87782274 21.27144312 12.16282016 27.35184467 7 34 C5.72428195 31.44856389 6.27653907 30.69962602 7 28 C7.71095188 21.14689007 7.13290391 15.64789801 3 10 C-1.24682852 5.372705 -5.60996573 2.32752197 -12.07470703 1.84521484 C-14.34506206 1.80395374 -16.60487721 1.82498035 -18.875 1.875 C-19.65875 1.88402344 -20.4425 1.89304687 -21.25 1.90234375 C-23.16680055 1.92571937 -25.08344191 1.96158347 -27 2 C-19.83606332 -5.44967774 -8.75319484 -4.32778778 0 0 Z "
    fill="#556FBF" transform="translate(74,96)" />
  <path
    d="M0 0 C2.64 0 5.28 0 8 0 C8 9.9 8 19.8 8 30 C5.36 30 2.72 30 0 30 C0 28.68 0 27.36 0 26 C2.31 26 4.62 26 7 26 C7 24.68 7 23.36 7 22 C4.69 22 2.38 22 0 22 C0 20.35 0 18.7 0 17 C2.31 17 4.62 17 7 17 C7 15.68 7 14.36 7 13 C4.69 13 2.38 13 0 13 C0 11.35 0 9.7 0 8 C2.31 8 4.62 8 7 8 C7 6.68 7 5.36 7 4 C4.69 4 2.38 4 0 4 C0 2.68 0 1.36 0 0 Z "
    fill="#5771C0" transform="translate(14,78)" />
  <path
    d="M0 0 C5.28 0 10.56 0 16 0 C16 0.66 16 1.32 16 2 C25.57 2 35.14 2 45 2 C45 2.33 45 2.66 45 3 C22.32708705 4.07530465 -0.30745324 4.11157455 -23 4 C-23 3.67 -23 3.34 -23 3 C-15.74 2.67 -8.48 2.34 -1 2 C-0.67 1.34 -0.34 0.68 0 0 Z "
    fill="#F3F5FA" transform="translate(59,159)" />
  <path
    d="M0 0 C1.32 0.33 2.64 0.66 4 1 C4 1.66 4 2.32 4 3 C3.01 3 2.02 3 1 3 C1.03804946 13.34456685 1.09740033 23.68877157 1.18390274 34.0330534 C1.22340173 38.83642119 1.2555783 43.63960499 1.27099609 48.44311523 C1.28614677 53.07933818 1.3205639 57.71505539 1.36830902 62.35105324 C1.38313925 64.11921606 1.39104196 65.88745108 1.39188385 67.65567589 C1.39425038 70.13387257 1.42130287 72.61066802 1.45410156 75.08862305 C1.4490712 75.81870575 1.44404083 76.54878845 1.43885803 77.30099487 C1.53761944 82.12807929 2.63109134 84.56313057 6 88 C3.03 88.495 3.03 88.495 0 89 C0 59.63 0 30.26 0 0 Z "
    fill="#BBC6E5" transform="translate(22,75)" />
  <path
    d="M0 0 C7.26 0 14.52 0 22 0 C20.68 0.33 19.36 0.66 18 1 C18 3.31 18 5.62 18 8 C16.35 8 14.7 8 13 8 C13 5.69 13 3.38 13 1 C11.68 1 10.36 1 9 1 C9 3.31 9 5.62 9 8 C7.35 8 5.7 8 4 8 C4 5.69 4 3.38 4 1 C2.68 0.67 1.36 0.34 0 0 Z "
    fill="#647BC4" transform="translate(47,164)" />
  <path
    d="M0 0 C5.61 0 11.22 0 17 0 C17 2.64 17 5.28 17 8 C15.68 8 14.36 8 13 8 C13 5.69 13 3.38 13 1 C11.35 1 9.7 1 8 1 C8 3.31 8 5.62 8 8 C6.68 8 5.36 8 4 8 C4 5.69 4 3.38 4 1 C2.68 0.67 1.36 0.34 0 0 Z "
    fill="#5771C0" transform="translate(30,164)" />
  <path
    d="M0 0 C4.29 0 8.58 0 13 0 C13 2.64 13 5.28 13 8 C11.68 8 10.36 8 9 8 C9 5.69 9 3.38 9 1 C7.35 1 5.7 1 4 1 C4 3.31 4 5.62 4 8 C2.68 8 1.36 8 0 8 C0 5.36 0 2.72 0 0 Z "
    fill="#516BBD" transform="translate(69,164)" />
  <path
    d="M0 0 C0.33 0 0.66 0 1 0 C1 2.31 1 4.62 1 7 C3.64 7 6.28 7 9 7 C9 8.65 9 10.3 9 12 C6.36 12 3.72 12 1 12 C0.67 12.66 0.34 13.32 0 14 C0 9.38 0 4.76 0 0 Z "
    fill="#7A8ECC" transform="translate(111,123)" />
  <path
    d="M0 0 C3 1 3 1 4.27270508 2.53051758 C6.90708434 4.77169479 9.22976707 4.43733116 12.63671875 4.51171875 C13.93544922 4.54716797 15.23417969 4.58261719 16.57226562 4.61914062 C17.94400517 4.6422405 19.3157501 4.6650229 20.6875 4.6875 C22.07099607 4.72067542 23.45446129 4.75516531 24.83789062 4.79101562 C28.22517883 4.87363241 31.61220357 4.94274058 35 5 C35 5.33 35 5.66 35 6 C30.82031713 6.26745392 26.64053146 6.50031898 22.45727539 6.7019043 C21.03586183 6.77519973 19.61489416 6.85777402 18.19458008 6.94995117 C16.14712779 7.08118892 14.10036613 7.17846818 12.05078125 7.26953125 C10.20480347 7.37164917 10.20480347 7.37164917 8.3215332 7.47583008 C4.05010352 6.86392148 2.63197715 5.33342168 0 2 C0 1.34 0 0.68 0 0 Z "
    fill="#E6EAF6" transform="translate(23,156)" />
  <path
    d="M0 0 C4.29 0 8.58 0 13 0 C11.68 0.33 10.36 0.66 9 1 C9 3.31 9 5.62 9 8 C7.35 8 5.7 8 4 8 C4 5.69 4 3.38 4 1 C2.68 0.67 1.36 0.34 0 0 Z "
    fill="#657CC5" transform="translate(82,164)" />
  <path d="M0 0 C1.65 0 3.3 0 5 0 C5 2.64 5 5.28 5 8 C3.35 8 1.7 8 0 8 C0 5.36 0 2.72 0 0 Z "
    fill="#6179C4" transform="translate(25,164)" />
  <path
    d="M0 0 C2.64 0 5.28 0 8 0 C8 2.64 8 5.28 8 8 C7.67 6.68 7.34 5.36 7 4 C4.69 4 2.38 4 0 4 C0 2.68 0 1.36 0 0 Z "
    fill="#4C68BC" transform="translate(14,139)" />
  <path
    d="M0 0 C2.64 0 5.28 0 8 0 C8 2.64 8 5.28 8 8 C7.67 6.68 7.34 5.36 7 4 C4.69 4 2.38 4 0 4 C0 2.68 0 1.36 0 0 Z "
    fill="#4C68BC" transform="translate(14,78)" />
  <path d="M0 0 C1.32 0 2.64 0 4 0 C4 2.64 4 5.28 4 8 C2.68 8 1.36 8 0 8 C0 5.36 0 2.72 0 0 Z "
    fill="#4E69BD" transform="translate(43,164)" />
  <path d="M0 0 C2.64 0 5.28 0 8 0 C8 1.32 8 2.64 8 4 C5.36 4 2.72 4 0 4 C0 2.68 0 1.36 0 0 Z "
    fill="#4965BB" transform="translate(14,104)" />
  <path d="M0 0 C2.31 0 4.62 0 7 0 C7 1.32 7 2.64 7 4 C4.69 4 2.38 4 0 4 C0 2.68 0 1.36 0 0 Z "
    fill="#4965BB" transform="translate(112,157)" />
  <path d="M0 0 C2.31 0 4.62 0 7 0 C7 1.32 7 2.64 7 4 C4.69 4 2.38 4 0 4 C0 2.68 0 1.36 0 0 Z "
    fill="#4965BB" transform="translate(112,148)" />
  <path d="M0 0 C2.31 0 4.62 0 7 0 C7 1.32 7 2.64 7 4 C4.69 4 2.38 4 0 4 C0 2.68 0 1.36 0 0 Z "
    fill="#4965BB" transform="translate(112,139)" />
  <path d="M0 0 C2.31 0 4.62 0 7 0 C7 1.32 7 2.64 7 4 C4.69 4 2.38 4 0 4 C0 2.68 0 1.36 0 0 Z "
    fill="#4965BB" transform="translate(112,122)" />
  <path d="M0 0 C2.31 0 4.62 0 7 0 C7 1.32 7 2.64 7 4 C4.69 4 2.38 4 0 4 C0 2.68 0 1.36 0 0 Z "
    fill="#4965BB" transform="translate(112,113)" />
  <path d="M0 0 C2.31 0 4.62 0 7 0 C7 1.32 7 2.64 7 4 C4.69 4 2.38 4 0 4 C0 2.68 0 1.36 0 0 Z "
    fill="#4965BB" transform="translate(112,104)" />
  <path d="M0 0 C2.31 0 4.62 0 7 0 C7 1.32 7 2.64 7 4 C4.69 4 2.38 4 0 4 C0 2.68 0 1.36 0 0 Z "
    fill="#4965BB" transform="translate(112,96)" />
  <path d="M0 0 C2.31 0 4.62 0 7 0 C7 1.32 7 2.64 7 4 C4.69 4 2.38 4 0 4 C0 2.68 0 1.36 0 0 Z "
    fill="#4965BB" transform="translate(112,87)" />
  <path d="M0 0 C2.31 0 4.62 0 7 0 C7 1.32 7 2.64 7 4 C4.69 4 2.38 4 0 4 C0 2.68 0 1.36 0 0 Z "
    fill="#4965BB" transform="translate(112,78)" />
  <path d="M0 0 C1.32 0 2.64 0 4 0 C4 2.31 4 4.62 4 7 C2.68 7 1.36 7 0 7 C0 4.69 0 2.38 0 0 Z "
    fill="#4965BB" transform="translate(104,67)" />
  <path d="M0 0 C1.32 0 2.64 0 4 0 C4 2.31 4 4.62 4 7 C2.68 7 1.36 7 0 7 C0 4.69 0 2.38 0 0 Z "
    fill="#4965BB" transform="translate(95,67)" />
  <path d="M0 0 C1.32 0 2.64 0 4 0 C4 2.31 4 4.62 4 7 C2.68 7 1.36 7 0 7 C0 4.69 0 2.38 0 0 Z "
    fill="#4965BB" transform="translate(78,67)" />
  <path d="M0 0 C1.32 0 2.64 0 4 0 C4 2.31 4 4.62 4 7 C2.68 7 1.36 7 0 7 C0 4.69 0 2.38 0 0 Z "
    fill="#4965BB" transform="translate(69,67)" />
  <path d="M0 0 C1.32 0 2.64 0 4 0 C4 2.31 4 4.62 4 7 C2.68 7 1.36 7 0 7 C0 4.69 0 2.38 0 0 Z "
    fill="#4965BB" transform="translate(43,67)" />
  <path d="M0 0 C1.32 0 2.64 0 4 0 C4 2.31 4 4.62 4 7 C2.68 7 1.36 7 0 7 C0 4.69 0 2.38 0 0 Z "
    fill="#4A66BB" transform="translate(34,67)" />
  <path
    d="M0 0 C1.22589844 0.29197266 1.22589844 0.29197266 2.4765625 0.58984375 C3.41628906 0.82380859 3.41628906 0.82380859 4.375 1.0625 C4.375 1.3925 4.375 1.7225 4.375 2.0625 C-0.245 2.3925 -4.865 2.7225 -9.625 3.0625 C-5.79882559 -0.76367441 -5.03421063 -1.22259401 0 0 Z "
    fill="#637BC4" transform="translate(56.625,94.9375)" />
  <path d="M0 0 C2.31 0 4.62 0 7 0 C7 0.99 7 1.98 7 3 C4.69 3 2.38 3 0 3 C0 2.01 0 1.02 0 0 Z "
    fill="#4965BB" transform="translate(112,131)" />
  <path d="M0 0 C0.99 0 1.98 0 3 0 C3 2.31 3 4.62 3 7 C2.01 7 1.02 7 0 7 C0 4.69 0 2.38 0 0 Z "
    fill="#4965BB" transform="translate(87,67)" />
  <path d="M0 0 C0.99 0 1.98 0 3 0 C3 2.31 3 4.62 3 7 C2.01 7 1.02 7 0 7 C0 4.69 0 2.38 0 0 Z "
    fill="#4965BB" transform="translate(61,67)" />
  <path d="M0 0 C0.99 0 1.98 0 3 0 C3 2.31 3 4.62 3 7 C2.01 7 1.02 7 0 7 C0 4.69 0 2.38 0 0 Z "
    fill="#4965BB" transform="translate(52,67)" />
  <path d="M0 0 C0.99 0 1.98 0 3 0 C3 2.31 3 4.62 3 7 C2.01 7 1.02 7 0 7 C0 4.69 0 2.38 0 0 Z "
    fill="#4965BB" transform="translate(26,67)" />
</svg>